<svg width="33" height="54" viewBox="0 0 33 54" fill="none" xmlns="http://www.w3.org/2000/svg">
<path d="M16.224 43.192C13.632 43.192 11.344 42.632 9.36 41.512C7.376 40.36 5.808 38.792 4.656 36.808C3.536 34.792 2.976 32.488 2.976 29.896C2.976 27.272 3.536 24.968 4.656 22.984C5.808 20.968 7.376 19.4 9.36 18.28C11.344 17.128 13.632 16.552 16.224 16.552C18.784 16.552 21.056 17.128 23.04 18.28C25.024 19.4 26.576 20.968 27.696 22.984C28.848 24.968 29.424 27.272 29.424 29.896C29.424 32.488 28.864 34.792 27.744 36.808C26.624 38.792 25.072 40.36 23.088 41.512C21.104 42.632 18.816 43.192 16.224 43.192ZM16.224 38.872C17.888 38.872 19.36 38.488 20.64 37.72C21.92 36.952 22.912 35.896 23.616 34.552C24.352 33.208 24.72 31.656 24.72 29.896C24.72 28.136 24.352 26.584 23.616 25.24C22.912 23.864 21.92 22.792 20.64 22.024C19.36 21.256 17.888 20.872 16.224 20.872C14.56 20.872 13.088 21.256 11.808 22.024C10.528 22.792 9.52 23.864 8.784 25.24C8.048 26.584 7.68 28.136 7.68 29.896C7.68 31.656 8.048 33.208 8.784 34.552C9.52 35.896 10.528 36.952 11.808 37.72C13.088 38.488 14.56 38.872 16.224 38.872Z" fill="#FC8701"/>
<line x1="5.5" y1="49.5" x2="26.5" y2="49.5" stroke="#FC8701" stroke-width="5" stroke-linecap="round"/>
</svg>
