<svg width="368" height="56" viewBox="0 0 368 56" fill="none" xmlns="http://www.w3.org/2000/svg">
<path d="M3.312 43C2.416 43 1.728 42.616 1.248 41.848C0.768 41.08 0.72 40.264 1.104 39.4L14.592 7.192C15.072 6.072 15.856 5.512 16.944 5.512C18.096 5.512 18.88 6.072 19.296 7.192L32.832 39.496C33.184 40.392 33.12 41.208 32.64 41.944C32.192 42.648 31.504 43 30.576 43C30.096 43 29.632 42.872 29.184 42.616C28.768 42.328 28.464 41.944 28.272 41.464L16.368 11.896H17.712L5.616 41.464C5.392 41.976 5.056 42.36 4.608 42.616C4.192 42.872 3.76 43 3.312 43ZM5.856 34.744L7.776 30.616H26.592L28.512 34.744H5.856ZM59.286 43.048C58.582 43.048 57.99 42.824 57.51 42.376C57.062 41.896 56.838 41.304 56.838 40.6V28.792C56.838 26.968 56.502 25.48 55.83 24.328C55.158 23.176 54.246 22.328 53.094 21.784C51.974 21.208 50.678 20.92 49.206 20.92C47.862 20.92 46.646 21.192 45.558 21.736C44.47 22.28 43.606 23.016 42.966 23.944C42.326 24.84 42.006 25.88 42.006 27.064H38.982C38.982 25.048 39.462 23.256 40.422 21.688C41.414 20.088 42.758 18.824 44.454 17.896C46.15 16.968 48.054 16.504 50.166 16.504C52.374 16.504 54.342 16.984 56.07 17.944C57.83 18.872 59.206 20.248 60.198 22.072C61.222 23.896 61.734 26.136 61.734 28.792V40.6C61.734 41.304 61.494 41.896 61.014 42.376C60.566 42.824 59.99 43.048 59.286 43.048ZM39.558 43.048C38.854 43.048 38.262 42.824 37.782 42.376C37.334 41.896 37.11 41.304 37.11 40.6V19.192C37.11 18.456 37.334 17.864 37.782 17.416C38.262 16.968 38.854 16.744 39.558 16.744C40.294 16.744 40.886 16.968 41.334 17.416C41.782 17.864 42.006 18.456 42.006 19.192V40.6C42.006 41.304 41.782 41.896 41.334 42.376C40.886 42.824 40.294 43.048 39.558 43.048ZM79.8128 43.192C77.4768 43.192 75.3808 42.616 73.5248 41.464C71.6688 40.28 70.1968 38.696 69.1088 36.712C68.0528 34.696 67.5248 32.424 67.5248 29.896C67.5248 27.368 68.1008 25.096 69.2528 23.08C70.4368 21.064 72.0208 19.48 74.0048 18.328C76.0208 17.144 78.2768 16.552 80.7728 16.552C83.2688 16.552 85.5088 17.144 87.4928 18.328C89.4768 19.48 91.0448 21.064 92.1968 23.08C93.3808 25.096 93.9728 27.368 93.9728 29.896H92.1008C92.1008 32.424 91.5568 34.696 90.4688 36.712C89.4128 38.696 87.9568 40.28 86.1008 41.464C84.2448 42.616 82.1488 43.192 79.8128 43.192ZM80.7728 38.872C82.4048 38.872 83.8608 38.488 85.1408 37.72C86.4208 36.92 87.4288 35.848 88.1648 34.504C88.9008 33.128 89.2688 31.592 89.2688 29.896C89.2688 28.168 88.9008 26.632 88.1648 25.288C87.4288 23.912 86.4208 22.84 85.1408 22.072C83.8608 21.272 82.4048 20.872 80.7728 20.872C79.1728 20.872 77.7168 21.272 76.4048 22.072C75.1248 22.84 74.1008 23.912 73.3328 25.288C72.5968 26.632 72.2288 28.168 72.2288 29.896C72.2288 31.592 72.5968 33.128 73.3328 34.504C74.1008 35.848 75.1248 36.92 76.4048 37.72C77.7168 38.488 79.1728 38.872 80.7728 38.872ZM91.5248 43.048C90.8208 43.048 90.2288 42.824 89.7488 42.376C89.3008 41.896 89.0768 41.304 89.0768 40.6V33.256L89.9888 28.168L93.9728 29.896V40.6C93.9728 41.304 93.7328 41.896 93.2528 42.376C92.8048 42.824 92.2288 43.048 91.5248 43.048ZM102.651 26.584C102.651 24.664 103.115 22.952 104.043 21.448C105.003 19.912 106.283 18.696 107.883 17.8C109.483 16.904 111.243 16.456 113.163 16.456C115.083 16.456 116.507 16.776 117.435 17.416C118.395 18.024 118.763 18.76 118.539 19.624C118.443 20.072 118.251 20.424 117.963 20.68C117.707 20.904 117.403 21.048 117.051 21.112C116.699 21.176 116.315 21.16 115.899 21.064C113.851 20.648 112.011 20.616 110.379 20.968C108.747 21.32 107.451 21.976 106.491 22.936C105.563 23.896 105.099 25.112 105.099 26.584H102.651ZM102.699 43C101.931 43 101.339 42.808 100.923 42.424C100.507 42.008 100.299 41.4 100.299 40.6V19.144C100.299 18.376 100.507 17.784 100.923 17.368C101.339 16.952 101.931 16.744 102.699 16.744C103.499 16.744 104.091 16.952 104.475 17.368C104.891 17.752 105.099 18.344 105.099 19.144V40.6C105.099 41.368 104.891 41.96 104.475 42.376C104.091 42.792 103.499 43 102.699 43ZM134.587 43.192C131.995 43.192 129.707 42.632 127.723 41.512C125.739 40.36 124.171 38.792 123.019 36.808C121.899 34.792 121.339 32.488 121.339 29.896C121.339 27.272 121.899 24.968 123.019 22.984C124.171 20.968 125.739 19.4 127.723 18.28C129.707 17.128 131.995 16.552 134.587 16.552C137.147 16.552 139.419 17.128 141.403 18.28C143.387 19.4 144.939 20.968 146.059 22.984C147.211 24.968 147.787 27.272 147.787 29.896C147.787 32.488 147.227 34.792 146.107 36.808C144.987 38.792 143.435 40.36 141.451 41.512C139.467 42.632 137.179 43.192 134.587 43.192ZM134.587 38.872C136.251 38.872 137.723 38.488 139.003 37.72C140.283 36.952 141.275 35.896 141.979 34.552C142.715 33.208 143.083 31.656 143.083 29.896C143.083 28.136 142.715 26.584 141.979 25.24C141.275 23.864 140.283 22.792 139.003 22.024C137.723 21.256 136.251 20.872 134.587 20.872C132.923 20.872 131.451 21.256 130.171 22.024C128.891 22.792 127.883 23.864 127.147 25.24C126.411 26.584 126.043 28.136 126.043 29.896C126.043 31.656 126.411 33.208 127.147 34.552C127.883 35.896 128.891 36.952 130.171 37.72C131.451 38.488 132.923 38.872 134.587 38.872Z" fill="#FC8701"/>
<path d="M176.144 43.288C174.48 43.288 172.736 42.984 170.912 42.376C169.088 41.768 167.568 40.744 166.352 39.304C166.096 38.984 165.984 38.648 166.016 38.296C166.08 37.912 166.288 37.592 166.64 37.336C166.96 37.112 167.296 37.032 167.648 37.096C168.032 37.16 168.336 37.336 168.56 37.624C169.488 38.712 170.608 39.48 171.92 39.928C173.264 40.344 174.72 40.552 176.288 40.552C178.976 40.552 180.88 40.072 182 39.112C183.12 38.152 183.68 37.032 183.68 35.752C183.68 34.504 183.072 33.48 181.856 32.68C180.672 31.848 178.832 31.256 176.336 30.904C173.136 30.456 170.768 29.592 169.232 28.312C167.696 27.032 166.928 25.544 166.928 23.848C166.928 22.248 167.328 20.904 168.128 19.816C168.928 18.696 170.016 17.864 171.392 17.32C172.8 16.744 174.4 16.456 176.192 16.456C178.368 16.456 180.208 16.856 181.712 17.656C183.216 18.424 184.432 19.464 185.36 20.776C185.616 21.096 185.696 21.448 185.6 21.832C185.536 22.184 185.296 22.472 184.88 22.696C184.56 22.856 184.224 22.904 183.872 22.84C183.52 22.776 183.216 22.584 182.96 22.264C182.16 21.24 181.184 20.472 180.032 19.96C178.912 19.416 177.6 19.144 176.096 19.144C174.08 19.144 172.512 19.576 171.392 20.44C170.272 21.304 169.712 22.344 169.712 23.56C169.712 24.392 169.936 25.128 170.384 25.768C170.864 26.376 171.632 26.904 172.688 27.352C173.744 27.768 175.152 28.104 176.912 28.36C179.312 28.68 181.2 29.224 182.576 29.992C183.984 30.76 184.976 31.656 185.552 32.68C186.16 33.672 186.464 34.744 186.464 35.896C186.464 37.4 185.984 38.712 185.024 39.832C184.064 40.952 182.8 41.816 181.232 42.424C179.664 43 177.968 43.288 176.144 43.288ZM203.991 43.288C201.431 43.288 199.127 42.712 197.079 41.56C195.063 40.376 193.463 38.776 192.279 36.76C191.127 34.712 190.551 32.424 190.551 29.896C190.551 27.336 191.127 25.048 192.279 23.032C193.463 20.984 195.063 19.384 197.079 18.232C199.127 17.048 201.431 16.456 203.991 16.456C206.551 16.456 208.839 17.048 210.855 18.232C212.871 19.384 214.455 20.984 215.607 23.032C216.791 25.048 217.383 27.336 217.383 29.896C217.383 32.424 216.791 34.712 215.607 36.76C214.455 38.776 212.871 40.376 210.855 41.56C208.839 42.712 206.551 43.288 203.991 43.288ZM203.991 40.6C206.007 40.6 207.799 40.136 209.367 39.208C210.967 38.248 212.215 36.968 213.111 35.368C214.039 33.736 214.503 31.896 214.503 29.848C214.503 27.832 214.039 26.024 213.111 24.424C212.215 22.792 210.967 21.512 209.367 20.584C207.799 19.624 206.007 19.144 203.991 19.144C202.007 19.144 200.215 19.624 198.615 20.584C197.015 21.512 195.751 22.792 194.823 24.424C193.895 26.024 193.431 27.848 193.431 29.896C193.431 31.912 193.895 33.736 194.823 35.368C195.751 36.968 197.015 38.248 198.615 39.208C200.215 40.136 202.007 40.6 203.991 40.6ZM227.209 43C226.793 43 226.441 42.872 226.153 42.616C225.897 42.328 225.769 41.976 225.769 41.56V16.696C225.769 14.52 226.105 12.6 226.777 10.936C227.449 9.24 228.489 7.912 229.897 6.952C231.337 5.992 233.161 5.512 235.369 5.512C235.817 5.512 236.169 5.64 236.425 5.896C236.681 6.12 236.809 6.424 236.809 6.808C236.809 7.192 236.681 7.512 236.425 7.768C236.169 7.992 235.817 8.104 235.369 8.104C233.737 8.104 232.425 8.488 231.433 9.256C230.473 9.992 229.769 11.016 229.321 12.328C228.905 13.608 228.697 15.064 228.697 16.696V41.56C228.697 41.976 228.553 42.328 228.265 42.616C228.009 42.872 227.657 43 227.209 43ZM222.025 20.296C221.641 20.296 221.321 20.184 221.065 19.96C220.841 19.704 220.729 19.384 220.729 19C220.729 18.616 220.841 18.312 221.065 18.088C221.321 17.832 221.641 17.704 222.025 17.704H235.033C235.417 17.704 235.721 17.832 235.945 18.088C236.201 18.312 236.329 18.616 236.329 19C236.329 19.384 236.201 19.704 235.945 19.96C235.721 20.184 235.417 20.296 235.033 20.296H222.025ZM250.932 43C249.172 42.968 247.604 42.568 246.228 41.8C244.852 41 243.78 39.912 243.012 38.536C242.244 37.128 241.86 35.544 241.86 33.784V9.88C241.86 9.432 241.988 9.08 242.244 8.824C242.532 8.536 242.884 8.392 243.3 8.392C243.748 8.392 244.1 8.536 244.356 8.824C244.644 9.08 244.788 9.432 244.788 9.88V33.784C244.788 35.64 245.364 37.16 246.516 38.344C247.668 39.496 249.156 40.072 250.98 40.072H252.036C252.484 40.072 252.836 40.216 253.092 40.504C253.38 40.76 253.524 41.112 253.524 41.56C253.524 41.976 253.38 42.328 253.092 42.616C252.836 42.872 252.484 43 252.036 43H250.932ZM238.116 20.296C237.732 20.296 237.412 20.184 237.156 19.96C236.932 19.704 236.82 19.384 236.82 19C236.82 18.616 236.932 18.312 237.156 18.088C237.412 17.832 237.732 17.704 238.116 17.704H251.124C251.508 17.704 251.812 17.832 252.036 18.088C252.292 18.312 252.42 18.616 252.42 19C252.42 19.384 252.292 19.704 252.036 19.96C251.812 20.184 251.508 20.296 251.124 20.296H238.116ZM264.435 43C264.115 43 263.827 42.92 263.571 42.76C263.347 42.6 263.187 42.376 263.091 42.088L255.315 18.808C255.187 18.104 255.219 17.592 255.411 17.272C255.603 16.92 255.939 16.744 256.419 16.744C256.675 16.744 256.931 16.824 257.187 16.984C257.443 17.112 257.635 17.32 257.763 17.608L264.867 39.016H264.243L270.771 17.896C270.867 17.544 271.043 17.272 271.299 17.08C271.555 16.856 271.859 16.744 272.211 16.744C272.563 16.744 272.851 16.856 273.075 17.08C273.331 17.272 273.523 17.544 273.651 17.896L280.371 39.016H279.507L286.611 17.608C286.867 17.032 287.315 16.744 287.955 16.744C288.531 16.744 288.915 16.968 289.107 17.416C289.331 17.864 289.331 18.328 289.107 18.808L281.379 42.088C281.283 42.376 281.107 42.6 280.851 42.76C280.627 42.92 280.339 43 279.987 43C279.667 43 279.379 42.92 279.123 42.76C278.867 42.6 278.707 42.376 278.643 42.088L271.779 20.776H272.403L265.779 42.088C265.651 42.408 265.459 42.648 265.203 42.808C264.979 42.936 264.723 43 264.435 43ZM304.635 43.288C302.075 43.288 299.771 42.712 297.723 41.56C295.707 40.376 294.107 38.776 292.923 36.76C291.771 34.712 291.195 32.424 291.195 29.896C291.195 27.336 291.771 25.048 292.923 23.032C294.107 20.984 295.707 19.384 297.723 18.232C299.771 17.048 302.075 16.456 304.635 16.456C307.195 16.456 309.483 17.048 311.499 18.232C313.515 19.384 315.099 20.984 316.251 23.032C317.435 25.048 318.027 27.336 318.027 29.896L316.827 31.816C316.827 33.992 316.283 35.944 315.195 37.672C314.139 39.4 312.699 40.776 310.875 41.8C309.051 42.792 306.971 43.288 304.635 43.288ZM304.635 40.6C306.651 40.6 308.443 40.136 310.011 39.208C311.611 38.248 312.859 36.968 313.755 35.368C314.683 33.736 315.147 31.912 315.147 29.896C315.147 27.848 314.683 26.024 313.755 24.424C312.859 22.792 311.611 21.512 310.011 20.584C308.443 19.624 306.651 19.144 304.635 19.144C302.651 19.144 300.859 19.624 299.259 20.584C297.659 21.512 296.395 22.792 295.467 24.424C294.539 26.024 294.075 27.848 294.075 29.896C294.075 31.912 294.539 33.736 295.467 35.368C296.395 36.968 297.659 38.248 299.259 39.208C300.859 40.136 302.651 40.6 304.635 40.6ZM316.587 43C316.171 43 315.819 42.872 315.531 42.616C315.275 42.328 315.147 41.976 315.147 41.56V32.776L316.059 29.896H318.027V41.56C318.027 41.976 317.899 42.328 317.643 42.616C317.387 42.872 317.035 43 316.587 43ZM325.213 26.968C325.405 24.92 325.965 23.112 326.893 21.544C327.821 19.944 329.021 18.696 330.493 17.8C331.965 16.904 333.597 16.456 335.389 16.456C336.605 16.456 337.549 16.6 338.221 16.888C338.893 17.176 339.149 17.688 338.989 18.424C338.893 18.904 338.669 19.192 338.317 19.288C337.965 19.384 337.533 19.4 337.021 19.336C336.541 19.24 335.997 19.192 335.389 19.192C333.789 19.192 332.365 19.528 331.117 20.2C329.869 20.872 328.893 21.8 328.189 22.984C327.485 24.136 327.133 25.464 327.133 26.968H325.213ZM325.693 43C325.277 43 324.925 42.872 324.637 42.616C324.381 42.328 324.253 41.976 324.253 41.56V18.184C324.253 17.736 324.381 17.384 324.637 17.128C324.925 16.872 325.277 16.744 325.693 16.744C326.141 16.744 326.493 16.872 326.749 17.128C327.005 17.384 327.133 17.736 327.133 18.184V41.56C327.133 41.976 327.005 42.328 326.749 42.616C326.493 42.872 326.141 43 325.693 43ZM354.034 43.24C351.506 43.24 349.25 42.68 347.266 41.56C345.314 40.408 343.778 38.824 342.658 36.808C341.538 34.792 340.978 32.488 340.978 29.896C340.978 27.272 341.506 24.968 342.562 22.984C343.618 20.968 345.074 19.384 346.93 18.232C348.786 17.08 350.914 16.504 353.314 16.504C355.682 16.504 357.778 17.064 359.602 18.184C361.426 19.272 362.85 20.792 363.874 22.744C364.898 24.664 365.41 26.888 365.41 29.416C365.41 29.832 365.282 30.168 365.026 30.424C364.77 30.648 364.434 30.76 364.018 30.76H342.898V28.264H364.786L362.674 29.848C362.738 27.768 362.386 25.928 361.618 24.328C360.85 22.728 359.746 21.48 358.306 20.584C356.898 19.656 355.234 19.192 353.314 19.192C351.49 19.192 349.858 19.656 348.418 20.584C347.01 21.48 345.89 22.728 345.058 24.328C344.258 25.928 343.858 27.784 343.858 29.896C343.858 31.976 344.29 33.816 345.154 35.416C346.018 37.016 347.218 38.28 348.754 39.208C350.29 40.104 352.05 40.552 354.034 40.552C355.282 40.552 356.53 40.344 357.778 39.928C359.058 39.48 360.066 38.904 360.802 38.2C361.058 37.944 361.362 37.816 361.714 37.816C362.098 37.784 362.418 37.88 362.674 38.104C363.026 38.392 363.202 38.712 363.202 39.064C363.234 39.416 363.09 39.736 362.77 40.024C361.746 40.952 360.402 41.72 358.738 42.328C357.106 42.936 355.538 43.24 354.034 43.24Z" fill="white"/>
<path d="M124 53H145.141" stroke="#FC8701" stroke-width="5" stroke-linecap="round"/>
</svg>
